<svg width="32" height="32" viewBox="0 0 32 32" fill="none" xmlns="http://www.w3.org/2000/svg">
  <rect width="32" height="32" rx="7" fill="#4f46e5"/>
  <path d="M7 5h9L22 11v15a1 1 0 01-1 1H7a1 1 0 01-1-1V6a1 1 0 011-1z" fill="white" fill-opacity="0.15"/>
  <path d="M7 5h9L22 11v15a1 1 0 01-1 1H7a1 1 0 01-1-1V6a1 1 0 011-1z" stroke="white" stroke-width="1.2" stroke-linejoin="round"/>
  <path d="M16 5v6h6" stroke="white" stroke-width="1.2" stroke-linecap="round" stroke-linejoin="round"/>
  <path d="M9.5 18.5l2.5 2.5 5.5-5.5" stroke="white" stroke-width="1.8" stroke-linecap="round" stroke-linejoin="round"/>
</svg>
